<svg width="16" height="16" viewBox="0 0 16 16" fill="none" xmlns="http://www.w3.org/2000/svg">
<g filter="url(#filter0_d_115_11)">
<path d="M11.6905 8.08066C11.6905 10.1198 10.0501 11.7729 8.02663 11.7729C6.00314 11.7729 4.36278 10.1198 4.36278 8.08066C4.36278 6.0415 6.00314 4.38843 8.02663 4.38843C10.0501 4.38843 11.6905 6.0415 11.6905 8.08066Z" fill="#D9D9D9"/>
<path d="M3.01448 1.67096C2.89724 1.74185 2.06676 2.70478 1.66618 3.17739L3.92312 4.41797L5.41797 3.17739L4.62658 0.725748C4.13806 1.01128 3.13172 1.60007 3.01448 1.67096Z" fill="#D9D9D9"/>
<path d="M7.91772 0.000752653C7.78195 -0.0154577 6.54043 0.234207 5.93665 0.361066L6.96874 2.73388L8.90435 2.6742L9.76675 0.24701C9.20698 0.171679 8.0535 0.016963 7.91772 0.000752653Z" fill="#D9D9D9"/>
<path d="M0.318085 5.79107C0.258041 5.91486 0.0816815 7.17821 0.00100706 7.79441L2.56436 7.59672L3.14799 5.73595L1.15964 4.11373C0.90414 4.62127 0.378128 5.66728 0.318085 5.79107Z" fill="#D9D9D9"/>
<path d="M15.6432 5.48125C15.6153 5.34638 14.9853 4.23975 14.6738 3.7033L12.7701 5.44443L13.4422 7.27462L16 7.32608C15.8927 6.76734 15.6712 5.61613 15.6432 5.48125Z" fill="#D9D9D9"/>
<path d="M12.6665 1.56207C12.5701 1.46427 11.4439 0.881683 10.8928 0.602611L10.2366 3.10756L11.7892 4.27394L13.9624 2.91375C13.5706 2.50394 12.7628 1.65986 12.6665 1.56207Z" fill="#D9D9D9"/>
<path d="M12.9855 14.329C13.1028 14.2582 13.9332 13.2952 14.3338 12.8226L12.0769 11.582L10.582 12.8226L11.3734 15.2743C11.8619 14.9887 12.8683 14.3999 12.9855 14.329Z" fill="#D9D9D9"/>
<path d="M8.08227 15.9992C8.21805 16.0155 9.45957 15.7658 10.0633 15.6389L9.03126 13.2661L7.09565 13.3258L6.23325 15.753C6.79302 15.8283 7.9465 15.983 8.08227 15.9992Z" fill="#D9D9D9"/>
<path d="M15.6819 10.2089C15.6819 10.2089 15.9183 8.82179 15.999 8.20559L13.4356 8.40328L12.852 10.2641L14.8404 11.8863C15.0959 11.3787 15.6219 10.3327 15.6819 10.2089Z" fill="#D9D9D9"/>
<path d="M0.356777 10.5187C0.384737 10.6536 1.01471 11.7602 1.32619 12.2967L3.2299 10.5556L2.55777 8.72537L0 8.67391C0.107275 9.23266 0.328816 10.3839 0.356777 10.5187Z" fill="#D9D9D9"/>
<path d="M3.33354 14.4379C3.42986 14.5357 4.55615 15.1183 5.10725 15.3974L5.7634 12.8924L4.21083 11.7261L2.03758 13.0862C2.42943 13.4961 3.23722 14.3401 3.33354 14.4379Z" fill="#D9D9D9"/>
</g>
<defs>
<filter id="filter0_d_115_11" x="-4" y="0" width="24" height="24" filterUnits="userSpaceOnUse" color-interpolation-filters="sRGB">
<feFlood flood-opacity="0" result="BackgroundImageFix"/>
<feColorMatrix in="SourceAlpha" type="matrix" values="0 0 0 0 0 0 0 0 0 0 0 0 0 0 0 0 0 0 127 0" result="hardAlpha"/>
<feOffset dy="4"/>
<feGaussianBlur stdDeviation="2"/>
<feComposite in2="hardAlpha" operator="out"/>
<feColorMatrix type="matrix" values="0 0 0 0 0 0 0 0 0 0 0 0 0 0 0 0 0 0 0.25 0"/>
<feBlend mode="normal" in2="BackgroundImageFix" result="effect1_dropShadow_115_11"/>
<feBlend mode="normal" in="SourceGraphic" in2="effect1_dropShadow_115_11" result="shape"/>
</filter>
</defs>
</svg>
