<svg width="161" height="18" viewBox="0 0 161 18" fill="none" xmlns="http://www.w3.org/2000/svg">
<path d="M9.80646 5.92578C9.73686 5.2745 9.44354 4.7674 8.92649 4.40447C8.41442 4.04155 7.74822 3.86008 6.92791 3.86008C6.35121 3.86008 5.85653 3.94709 5.44389 4.12109C5.03125 4.2951 4.71555 4.53125 4.4968 4.82954C4.27805 5.12784 4.16619 5.4684 4.16122 5.85121C4.16122 6.16939 4.23331 6.44531 4.37749 6.67898C4.52663 6.91264 4.72798 7.11151 4.98153 7.27557C5.23509 7.43466 5.51598 7.56889 5.82422 7.67827C6.13246 7.78764 6.44318 7.87962 6.75639 7.95419L8.18821 8.31214C8.76492 8.44638 9.31925 8.62784 9.85121 8.85653C10.3881 9.08523 10.8679 9.37358 11.2905 9.72159C11.718 10.0696 12.0561 10.4897 12.3047 10.9819C12.5533 11.4741 12.6776 12.0508 12.6776 12.712C12.6776 13.6069 12.4489 14.3949 11.9915 15.076C11.5341 15.7521 10.8729 16.2816 10.0078 16.6644C9.14773 17.0423 8.10618 17.2312 6.88317 17.2312C5.69496 17.2312 4.66335 17.0472 3.78835 16.6793C2.91832 16.3114 2.23722 15.7745 1.74503 15.0685C1.25781 14.3626 0.994318 13.5025 0.954545 12.4883H3.67649C3.71626 13.0202 3.88033 13.4627 4.16868 13.8157C4.45703 14.1687 4.83239 14.4322 5.29474 14.6062C5.76207 14.7802 6.28409 14.8672 6.8608 14.8672C7.46236 14.8672 7.98935 14.7777 8.44176 14.5987C8.89915 14.4148 9.2571 14.1612 9.51562 13.8381C9.77415 13.5099 9.9059 13.1271 9.91087 12.6896C9.9059 12.2919 9.78906 11.9638 9.56037 11.7053C9.33168 11.4418 9.01101 11.223 8.59837 11.049C8.1907 10.87 7.71342 10.7109 7.16655 10.5717L5.42898 10.1243C4.17117 9.80114 3.17685 9.31143 2.44602 8.65518C1.72017 7.99396 1.35724 7.11648 1.35724 6.02273C1.35724 5.12287 1.60085 4.33487 2.08807 3.65874C2.58026 2.9826 3.24893 2.4581 4.09411 2.08523C4.93928 1.70739 5.89631 1.51847 6.9652 1.51847C8.04901 1.51847 8.99858 1.70739 9.81392 2.08523C10.6342 2.4581 11.2781 2.97763 11.7454 3.64382C12.2127 4.30504 12.4538 5.0657 12.4688 5.92578H9.80646ZM20.7446 5.54545V7.63352H14.1597V5.54545H20.7446ZM15.7854 2.80114H18.485V13.5547C18.485 13.9176 18.5397 14.196 18.6491 14.3899C18.7634 14.5788 18.9126 14.7081 19.0965 14.7777C19.2805 14.8473 19.4843 14.8821 19.708 14.8821C19.877 14.8821 20.0312 14.8697 20.1704 14.8448C20.3145 14.82 20.4239 14.7976 20.4985 14.7777L20.9534 16.8881C20.8092 16.9379 20.6029 16.9925 20.3344 17.0522C20.0709 17.1119 19.7478 17.1467 19.365 17.1566C18.6888 17.1765 18.0798 17.0746 17.5379 16.8509C16.996 16.6222 16.566 16.2692 16.2478 15.7919C15.9346 15.3146 15.7805 14.718 15.7854 14.0021V2.80114ZM26.2985 17.2312C25.5726 17.2312 24.9189 17.1019 24.3372 16.8434C23.7605 16.5799 23.3031 16.1921 22.965 15.68C22.6319 15.168 22.4654 14.5366 22.4654 13.7859C22.4654 13.1396 22.5847 12.6051 22.8233 12.1825C23.062 11.7599 23.3876 11.4219 23.8002 11.1683C24.2129 10.9148 24.6777 10.7234 25.1948 10.5941C25.7168 10.4599 26.2562 10.3629 26.813 10.3033C27.4842 10.2337 28.0286 10.1715 28.4462 10.1168C28.8638 10.0572 29.1671 9.96768 29.356 9.84837C29.5499 9.72408 29.6468 9.53267 29.6468 9.27415V9.2294C29.6468 8.66761 29.4803 8.2326 29.1472 7.92436C28.8141 7.61612 28.3343 7.462 27.7079 7.462C27.0467 7.462 26.5222 7.60618 26.1344 7.89453C25.7516 8.18288 25.4931 8.52344 25.3588 8.91619L22.8382 8.55824C23.0371 7.86222 23.3652 7.28054 23.8226 6.81321C24.28 6.34091 24.8393 5.98793 25.5005 5.75426C26.1618 5.51562 26.8926 5.39631 27.693 5.39631C28.2449 5.39631 28.7942 5.46094 29.3411 5.5902C29.888 5.71946 30.3876 5.93324 30.84 6.23153C31.2924 6.52486 31.6554 6.92507 31.9288 7.43217C32.2072 7.93928 32.3464 8.57315 32.3464 9.33381V17H29.7512V15.4265H29.6618C29.4977 15.7447 29.2665 16.043 28.9682 16.3214C28.6749 16.5948 28.3045 16.8161 27.8571 16.9851C27.4146 17.1491 26.8951 17.2312 26.2985 17.2312ZM26.9995 15.2475C27.5414 15.2475 28.0112 15.1406 28.4089 14.9268C28.8066 14.7081 29.1124 14.4197 29.3262 14.0618C29.5449 13.7038 29.6543 13.3136 29.6543 12.891V11.5412C29.5698 11.6108 29.4256 11.6754 29.2218 11.7351C29.0229 11.7947 28.7992 11.8469 28.5506 11.8917C28.302 11.9364 28.0559 11.9762 27.8123 12.011C27.5687 12.0458 27.3574 12.0756 27.1784 12.1005C26.7757 12.1552 26.4153 12.2447 26.0971 12.369C25.7789 12.4933 25.5279 12.6673 25.3439 12.891C25.16 13.1097 25.068 13.3931 25.068 13.7411C25.068 14.2383 25.2495 14.6136 25.6124 14.8672C25.9753 15.1207 26.4377 15.2475 26.9995 15.2475ZM35.0609 17V5.54545H37.6784V7.45455H37.7978C38.0066 6.79332 38.3645 6.28374 38.8716 5.92578C39.3837 5.56285 39.9679 5.38139 40.6241 5.38139C40.7733 5.38139 40.9398 5.38885 41.1238 5.40376C41.3127 5.41371 41.4693 5.43111 41.5936 5.45597V7.93928C41.4792 7.8995 41.2978 7.8647 41.0492 7.83487C40.8056 7.80007 40.5694 7.78267 40.3407 7.78267C39.8485 7.78267 39.4061 7.88956 39.0133 8.10334C38.6255 8.31214 38.3198 8.60298 38.0961 8.97585C37.8723 9.34872 37.7605 9.77876 37.7605 10.266V17H35.0609ZM45.848 13.4055L45.8406 10.1467H46.2731L50.3896 5.54545H53.544L48.4805 11.1832H47.9212L45.848 13.4055ZM43.3871 17V1.72727H46.0866V17H43.3871ZM50.576 17L46.8473 11.7873L48.6669 9.88565L53.805 17H50.576ZM63.4381 1.72727V17H60.6714V1.72727H63.4381ZM69.0144 10.2884V17H66.3148V5.54545H68.8951V7.49183H69.0293C69.2928 6.8505 69.7129 6.34091 70.2896 5.96307C70.8713 5.58523 71.5897 5.39631 72.4448 5.39631C73.2353 5.39631 73.9238 5.56534 74.5105 5.90341C75.1021 6.24148 75.5595 6.73118 75.8826 7.37251C76.2108 8.01385 76.3723 8.7919 76.3674 9.70668V17H73.6678V10.1243C73.6678 9.35866 73.4689 8.75959 73.0712 8.32706C72.6784 7.89453 72.1341 7.67827 71.438 7.67827C70.9657 7.67827 70.5456 7.78267 70.1777 7.99148C69.8148 8.19531 69.5289 8.49112 69.3201 8.87891C69.1163 9.26669 69.0144 9.73651 69.0144 10.2884ZM83.3624 17.2013C82.4625 17.2013 81.6571 16.9702 80.9462 16.5078C80.2353 16.0455 79.6735 15.3743 79.2608 14.4943C78.8482 13.6143 78.6419 12.5455 78.6419 11.2876C78.6419 10.0149 78.8507 8.94105 79.2683 8.06605C79.6909 7.18608 80.2601 6.52237 80.976 6.07493C81.6919 5.62251 82.4899 5.39631 83.3699 5.39631C84.041 5.39631 84.5929 5.51065 85.0254 5.73935C85.4579 5.96307 85.801 6.23402 86.0545 6.5522C86.3081 6.86541 86.5044 7.16122 86.6436 7.43963H86.7555V1.72727H89.4625V17H86.8077V15.1953H86.6436C86.5044 15.4737 86.3031 15.7695 86.0396 16.0827C85.7761 16.391 85.4281 16.6545 84.9956 16.8732C84.563 17.092 84.0186 17.2013 83.3624 17.2013ZM84.1156 14.9865C84.6873 14.9865 85.1745 14.8324 85.5772 14.5241C85.9799 14.2109 86.2857 13.7759 86.4945 13.2191C86.7033 12.6623 86.8077 12.0135 86.8077 11.2727C86.8077 10.532 86.7033 9.88814 86.4945 9.34126C86.2907 8.79439 85.9874 8.36932 85.5847 8.06605C85.187 7.76278 84.6973 7.61115 84.1156 7.61115C83.514 7.61115 83.0119 7.76776 82.6092 8.08097C82.2065 8.39418 81.9032 8.8267 81.6994 9.37855C81.4956 9.9304 81.3936 10.5618 81.3936 11.2727C81.3936 11.9886 81.4956 12.6275 81.6994 13.1893C81.9082 13.7461 82.214 14.1861 82.6167 14.5092C83.0243 14.8274 83.524 14.9865 84.1156 14.9865ZM99.64 12.1825V5.54545H102.34V17H99.722V14.9641H99.6027C99.3442 15.6055 98.9191 16.13 98.3275 16.5376C97.7409 16.9453 97.0175 17.1491 96.1574 17.1491C95.4067 17.1491 94.743 16.9826 94.1663 16.6495C93.5945 16.3114 93.1471 15.8217 92.824 15.1804C92.5008 14.5341 92.3392 13.7536 92.3392 12.8388V5.54545H95.0388V12.4212C95.0388 13.147 95.2377 13.7237 95.6354 14.1513C96.0331 14.5788 96.5551 14.7926 97.2014 14.7926C97.5992 14.7926 97.9845 14.6957 98.3573 14.5018C98.7302 14.3079 99.036 14.0195 99.2746 13.6367C99.5182 13.2489 99.64 12.7642 99.64 12.1825ZM114.169 8.57315L111.708 8.84162C111.638 8.59304 111.517 8.35938 111.343 8.14062C111.173 7.92188 110.945 7.74538 110.656 7.61115C110.368 7.47692 110.015 7.4098 109.597 7.4098C109.036 7.4098 108.563 7.5316 108.181 7.77521C107.803 8.01882 107.616 8.33452 107.621 8.7223C107.616 9.0554 107.738 9.32635 107.987 9.53516C108.24 9.74396 108.658 9.91548 109.24 10.0497L111.193 10.4673C112.277 10.701 113.083 11.0714 113.61 11.5785C114.142 12.0856 114.41 12.7493 114.415 13.5696C114.41 14.2905 114.199 14.9268 113.781 15.4787C113.368 16.0256 112.794 16.4531 112.058 16.7614C111.323 17.0696 110.477 17.2237 109.523 17.2237C108.121 17.2237 106.992 16.9304 106.137 16.3438C105.282 15.7521 104.773 14.9293 104.608 13.8754L107.241 13.6218C107.36 14.1388 107.614 14.5291 108.002 14.7926C108.389 15.0561 108.894 15.1879 109.515 15.1879C110.157 15.1879 110.671 15.0561 111.059 14.7926C111.452 14.5291 111.648 14.2035 111.648 13.8157C111.648 13.4876 111.521 13.2166 111.268 13.0028C111.019 12.7891 110.632 12.625 110.105 12.5107L108.151 12.1005C107.052 11.8718 106.239 11.4865 105.712 10.9446C105.185 10.3977 104.924 9.70668 104.929 8.87145C104.924 8.16548 105.116 7.55398 105.503 7.03693C105.896 6.51491 106.441 6.11222 107.137 5.82883C107.838 5.54048 108.645 5.39631 109.56 5.39631C110.903 5.39631 111.959 5.68217 112.73 6.25391C113.505 6.82564 113.985 7.59872 114.169 8.57315ZM122.361 5.54545V7.63352H115.776V5.54545H122.361ZM117.402 2.80114H120.101V13.5547C120.101 13.9176 120.156 14.196 120.265 14.3899C120.38 14.5788 120.529 14.7081 120.713 14.7777C120.897 14.8473 121.1 14.8821 121.324 14.8821C121.493 14.8821 121.647 14.8697 121.787 14.8448C121.931 14.82 122.04 14.7976 122.115 14.7777L122.57 16.8881C122.425 16.9379 122.219 16.9925 121.951 17.0522C121.687 17.1119 121.364 17.1467 120.981 17.1566C120.305 17.1765 119.696 17.0746 119.154 16.8509C118.612 16.6222 118.182 16.2692 117.864 15.7919C117.551 15.3146 117.397 14.718 117.402 14.0021V2.80114ZM124.619 17V5.54545H127.236V7.45455H127.355C127.564 6.79332 127.922 6.28374 128.429 5.92578C128.941 5.56285 129.525 5.38139 130.182 5.38139C130.331 5.38139 130.497 5.38885 130.681 5.40376C130.87 5.41371 131.027 5.43111 131.151 5.45597V7.93928C131.037 7.8995 130.855 7.8647 130.607 7.83487C130.363 7.80007 130.127 7.78267 129.898 7.78267C129.406 7.78267 128.964 7.88956 128.571 8.10334C128.183 8.31214 127.877 8.60298 127.654 8.97585C127.43 9.34872 127.318 9.77876 127.318 10.266V17H124.619ZM132.945 17V5.54545H135.644V17H132.945ZM134.302 3.91974C133.874 3.91974 133.506 3.77805 133.198 3.49467C132.89 3.20632 132.736 2.86079 132.736 2.4581C132.736 2.05043 132.89 1.7049 133.198 1.42152C133.506 1.13317 133.874 0.988991 134.302 0.988991C134.734 0.988991 135.102 1.13317 135.406 1.42152C135.714 1.7049 135.868 2.05043 135.868 2.4581C135.868 2.86079 135.714 3.20632 135.406 3.49467C135.102 3.77805 134.734 3.91974 134.302 3.91974ZM143.491 17.2237C142.343 17.2237 141.351 16.9851 140.516 16.5078C139.686 16.0256 139.047 15.3445 138.599 14.4645C138.152 13.5795 137.928 12.538 137.928 11.3398C137.928 10.1616 138.152 9.12749 138.599 8.23757C139.052 7.34268 139.683 6.64666 140.493 6.1495C141.304 5.64737 142.256 5.39631 143.35 5.39631C144.056 5.39631 144.722 5.51065 145.348 5.73935C145.98 5.96307 146.536 6.31108 147.019 6.78338C147.506 7.25568 147.889 7.85724 148.167 8.58807C148.445 9.31392 148.585 10.179 148.585 11.1832V12.011H139.196V10.1914H145.997C145.992 9.67436 145.88 9.21449 145.661 8.81179C145.443 8.40412 145.137 8.08345 144.744 7.84979C144.356 7.61612 143.904 7.49929 143.387 7.49929C142.835 7.49929 142.35 7.63352 141.933 7.90199C141.515 8.16548 141.189 8.51349 140.956 8.94602C140.727 9.37358 140.61 9.84339 140.605 10.3555V11.9439C140.605 12.6101 140.727 13.1818 140.971 13.6591C141.214 14.1314 141.555 14.4943 141.992 14.7479C142.43 14.9964 142.942 15.1207 143.529 15.1207C143.921 15.1207 144.277 15.0661 144.595 14.9567C144.913 14.8423 145.189 14.6758 145.423 14.457C145.656 14.2383 145.833 13.9673 145.952 13.6442L148.473 13.9276C148.314 14.5937 148.01 15.1754 147.563 15.6726C147.121 16.1648 146.554 16.5476 145.863 16.821C145.172 17.0895 144.381 17.2237 143.491 17.2237ZM159.922 8.57315L157.461 8.84162C157.391 8.59304 157.269 8.35938 157.095 8.14062C156.926 7.92188 156.698 7.74538 156.409 7.61115C156.121 7.47692 155.768 7.4098 155.35 7.4098C154.789 7.4098 154.316 7.5316 153.934 7.77521C153.556 8.01882 153.369 8.33452 153.374 8.7223C153.369 9.0554 153.491 9.32635 153.74 9.53516C153.993 9.74396 154.411 9.91548 154.992 10.0497L156.946 10.4673C158.03 10.701 158.835 11.0714 159.362 11.5785C159.894 12.0856 160.163 12.7493 160.168 13.5696C160.163 14.2905 159.952 14.9268 159.534 15.4787C159.121 16.0256 158.547 16.4531 157.811 16.7614C157.076 17.0696 156.23 17.2237 155.276 17.2237C153.874 17.2237 152.745 16.9304 151.89 16.3438C151.035 15.7521 150.525 14.9293 150.361 13.8754L152.994 13.6218C153.113 14.1388 153.367 14.5291 153.755 14.7926C154.142 15.0561 154.647 15.1879 155.268 15.1879C155.91 15.1879 156.424 15.0561 156.812 14.7926C157.205 14.5291 157.401 14.2035 157.401 13.8157C157.401 13.4876 157.274 13.2166 157.021 13.0028C156.772 12.7891 156.384 12.625 155.858 12.5107L153.904 12.1005C152.805 11.8718 151.992 11.4865 151.465 10.9446C150.938 10.3977 150.677 9.70668 150.682 8.87145C150.677 8.16548 150.869 7.55398 151.256 7.03693C151.649 6.51491 152.193 6.11222 152.889 5.82883C153.59 5.54048 154.398 5.39631 155.313 5.39631C156.655 5.39631 157.712 5.68217 158.483 6.25391C159.258 6.82564 159.738 7.59872 159.922 8.57315Z" fill="#FDF4F4"/>
</svg>
